<?xml version="1.0" encoding="UTF-8"?>
<svg width="105px" height="105px" viewBox="0 0 105 105" version="1.1" xmlns="http://www.w3.org/2000/svg" xmlns:xlink="http://www.w3.org/1999/xlink">
    <!-- Generator: Sketch 59 (86127) - https://sketch.com -->
    <title>a4-1-icon</title>
    <desc>Created with Sketch.</desc>
    <defs>
        <rect id="path-1" x="0" y="0" width="105" height="105"></rect>
    </defs>
    <g id="cpa---128" stroke="none" stroke-width="1" fill="none" fill-rule="evenodd">
        <g id="cpa-128" transform="translate(-160.000000, -4219.000000)">
            <g id="art4" transform="translate(160.000000, 4101.000000)">
                <g id="Group-12" transform="translate(0.000000, 117.000000)">
                    <g id="content" transform="translate(0.000000, 1.000000)">
                        <g id="a4-1-icon">
                            <mask id="mask-2" fill="white">
                                <use xlink:href="#path-1"></use>
                            </mask>
                            <g id="Rectangle"></g>
                            <g id="blood-pressure" mask="url(#mask-2)" stroke-width="1.3">
                                <g id="Groupe_23" transform="translate(0.547000, 0.000000)">
                                    <rect id="Rectangle_22" stroke="#ADB0B7" x="0.103" y="0.65" width="103.7" height="103.7" rx="23"></rect>
                                    <g id="Groupe_22" transform="translate(26.000000, 20.000000)" stroke="#000000" stroke-linecap="round" stroke-linejoin="round">
                                        <polyline id="Tracé_19" points="0.952 31.894 7.287 31.894 12.716 21.042 18.145 42.911 23.574 31.894 50.952 31.894"></polyline>
                                        <path d="M41.791,26.158 C37.3608847,17.6676994 32.4457564,9.43942543 27.07,1.514 C26.8203145,1.14121197 26.40118,0.917477622 25.9525,0.917477622 C25.50382,0.917477622 25.0846855,1.14121197 24.835,1.514 C23.098,4.093 19.569,9.443 15.935,15.602" id="Tracé_20"></path>
                                        <path d="M5.272,37.886 C4.80349193,39.4228344 4.54119813,41.0150923 4.492,42.621 C4.492,54.473583 14.100417,64.082 25.953,64.082 C37.805583,64.082 47.414,54.473583 47.414,42.621 C47.3630932,40.9995226 47.0964144,39.3920517 46.621,37.841" id="Tracé_21"></path>
                                        <g id="Groupe_21" transform="translate(30.000000, 46.000000)">
                                            <path d="M0.136,12.234 C5.71182442,10.7361342 10.0671342,6.38082442 11.565,0.805" id="Tracé_22"></path>
                                            <path d="M11.565,0.8 C10.0671342,6.37582442 5.71182442,10.7311342 0.136,12.229" id="Tracé_23"></path>
                                        </g>
                                    </g>
                                </g>
                            </g>
                        </g>
                    </g>
                </g>
            </g>
        </g>
    </g>
</svg>