<?xml version="1.0" encoding="UTF-8"?>
<svg width="56px" height="56px" viewBox="0 0 56 56" version="1.1" xmlns="http://www.w3.org/2000/svg" xmlns:xlink="http://www.w3.org/1999/xlink">
    <!-- Generator: Sketch 59 (86127) - https://sketch.com -->
    <title>a4-2-num</title>
    <desc>Created with Sketch.</desc>
    <g id="cpa---128" stroke="none" stroke-width="1" fill="none" fill-rule="evenodd">
        <g id="cpa-128" transform="translate(-856.000000, -4754.000000)">
            <g id="art4" transform="translate(160.000000, 4101.000000)">
                <g id="Group-12-Copy" transform="translate(0.000000, 627.000000)">
                    <g id="image" transform="translate(672.000000, 0.000000)">
                        <g id="a4-2-num" transform="translate(24.000000, 26.000000)">
                            <circle id="Oval" fill="#58BF93" cx="28" cy="28" r="28"></circle>
                            <path d="M19.568,37 L19.568,33.096 L27.024,26.984 L27.5583668,26.5371947 C29.9482311,24.5150222 30.896,23.3402667 30.896,21.608 C30.896,19.72 29.648,18.696 27.888,18.696 C26.16,18.696 24.976,19.656 23.312,21.704 L19.856,18.92 C22.064,15.912 24.208,14.28 28.208,14.28 C32.848,14.28 35.92,17 35.92,21.256 C35.92,25 34,26.856 30.032,29.928 L26.384,32.744 L36.144,32.744 L36.144,37 L19.568,37 Z" id="2" fill="#FFFFFF" fill-rule="nonzero"></path>
                        </g>
                    </g>
                </g>
            </g>
        </g>
    </g>
</svg>