<?xml version="1.0" encoding="UTF-8"?>
<svg width="56px" height="56px" viewBox="0 0 56 56" version="1.1" xmlns="http://www.w3.org/2000/svg" xmlns:xlink="http://www.w3.org/1999/xlink">
    <!-- Generator: Sketch 59 (86127) - https://sketch.com -->
    <title>a4-3-num</title>
    <desc>Created with Sketch.</desc>
    <g id="cpa---128" stroke="none" stroke-width="1" fill="none" fill-rule="evenodd">
        <g id="cpa-128" transform="translate(-856.000000, -5279.000000)">
            <g id="art4" transform="translate(160.000000, 4101.000000)">
                <g id="Group-12-Copy-2" transform="translate(0.000000, 1152.000000)">
                    <g id="image" transform="translate(672.000000, 0.000000)">
                        <g id="a4-3-num" transform="translate(24.000000, 26.000000)">
                            <circle id="Oval" fill="#58BF93" cx="28" cy="28" r="28"></circle>
                            <path d="M27.952,37.384 C23.92,37.384 21.136,35.784 19.216,33.512 L22.608,30.28 C24.144,32.008 25.744,32.968 28.016,32.968 C29.872,32.968 31.184,31.912 31.184,30.184 C31.184,28.36 29.552,27.336 26.8,27.336 L24.752,27.336 L23.984,24.2 L29.328,18.824 L20.528,18.824 L20.528,14.6 L35.664,14.6 L35.664,18.312 L30,23.72 C33.04,24.232 36.016,25.832 36.016,30.056 C36.016,34.28 32.944,37.384 27.952,37.384 Z" id="3" fill="#FFFFFF" fill-rule="nonzero"></path>
                        </g>
                    </g>
                </g>
            </g>
        </g>
    </g>
</svg>