<?xml version="1.0" encoding="UTF-8"?>
<svg width="105px" height="105px" viewBox="0 0 105 105" version="1.1" xmlns="http://www.w3.org/2000/svg" xmlns:xlink="http://www.w3.org/1999/xlink">
    <!-- Generator: Sketch 59 (86127) - https://sketch.com -->
    <title>a4-3-icon</title>
    <desc>Created with Sketch.</desc>
    <defs>
        <rect id="path-1" x="0" y="0" width="105" height="105"></rect>
    </defs>
    <g id="cpa---128" stroke="none" stroke-width="1" fill="none" fill-rule="evenodd">
        <g id="cpa-128" transform="translate(-160.000000, -5254.000000)">
            <g id="art4" transform="translate(160.000000, 4101.000000)">
                <g id="Group-12-Copy-2" transform="translate(0.000000, 1152.000000)">
                    <g id="content" transform="translate(0.000000, 1.000000)">
                        <g id="a4-3-icon">
                            <mask id="mask-2" fill="white">
                                <use xlink:href="#path-1"></use>
                            </mask>
                            <g id="Rectangle"></g>
                            <g id="electrocardiogram" mask="url(#mask-2)" stroke-width="1.3">
                                <g id="Groupe_14" transform="translate(0.597000, 0.000000)">
                                    <rect id="Rectangle_15" stroke="#ADB0B7" x="0.053" y="0.65" width="103.7" height="103.7" rx="23"></rect>
                                    <g id="Groupe_13" transform="translate(17.000000, 20.000000)" stroke="#000000" stroke-linecap="round" stroke-linejoin="round">
                                        <polyline id="Tracé_7" points="11.239 30.008 19.939 30.008 25.078 19.736 30.217 40.436 35.356 30.009 58.561 30.009"></polyline>
                                        <path d="M38.359,10.12 L34.9,6.82 C26.9816444,-1.04929167 14.1893094,-1.02941407 6.29544768,6.86444768 C-1.59841407,14.7583094 -1.61829167,27.5506444 6.251,35.469 L34.9,64.118 L63.5,35.518 C63.517,35.501 63.536,35.488 63.553,35.471 C70.5141293,28.5088029 71.4628386,17.5501978 65.8017732,9.49527092 C60.1407077,1.44034406 49.5086181,-1.37918516 40.6,2.812" id="Tracé_8"></path>
                                    </g>
                                </g>
                            </g>
                        </g>
                    </g>
                </g>
            </g>
        </g>
    </g>
</svg>