<?xml version="1.0" encoding="UTF-8"?>
<svg width="32px" height="32px" viewBox="0 0 32 32" version="1.1" xmlns="http://www.w3.org/2000/svg" xmlns:xlink="http://www.w3.org/1999/xlink">
    <!-- Generator: Sketch 59 (86127) - https://sketch.com -->
    <title>check</title>
    <desc>Created with Sketch.</desc>
    <defs>
        <rect id="path-1" x="0" y="0" width="32" height="32" rx="4"></rect>
    </defs>
    <g id="cpa---128" stroke="none" stroke-width="1" fill="none" fill-rule="evenodd">
        <g id="cpa-128" transform="translate(-160.000000, -354.000000)">
            <g id="Group-33" transform="translate(0.000000, -2.000000)">
                <g id="Group-31" transform="translate(160.000000, 356.000000)">
                    <g id="Group-26">
                        <g id="check">
                            <mask id="mask-2" fill="white">
                                <use xlink:href="#path-1"></use>
                            </mask>
                            <use id="Rectangle" fill="#58BF93" xlink:href="#path-1"></use>
                            <g id="flaticon1572536700-svg" mask="url(#mask-2)" fill="#FFFFFF" fill-rule="nonzero">
                                <g transform="translate(8.000000, 8.000000)" id="Path">
                                    <path d="M4.71794872,7.53504274 C4.4991453,7.31623932 4.14358974,7.31623932 3.92478632,7.53504274 C3.70598291,7.75384615 3.70598291,8.10940171 3.92478632,8.32820513 L6.50940171,10.9128205 C6.61880342,11.0222222 6.75555556,11.0769231 6.90598291,11.0769231 C6.91965812,11.0769231 6.91965812,11.0769231 6.93333333,11.0769231 C7.08376068,11.0632479 7.23418803,10.9948718 7.34358974,10.8717949 L13.8119658,3.11794872 C14.0034188,2.88547009 13.9760684,2.52991453 13.7435897,2.32478632 C13.5111111,2.13333333 13.1555556,2.16068376 12.9504274,2.39316239 L6.86495726,9.68205128 L4.71794872,7.53504274 L4.71794872,7.53504274 Z"></path>
                                    <path d="M12.1846154,1.27179487 C9.03931624,-0.697435897 5.00512821,-0.232478632 2.37948718,2.39316239 C-0.711111111,5.48376068 -0.711111111,10.5299145 2.37948718,13.6205128 C3.92478632,15.165812 5.96239316,15.9452991 7.98632479,15.9452991 C10.0102564,15.9452991 12.0478632,15.165812 13.5931624,13.6205128 C16.2324786,10.9811966 16.6837607,6.93333333 14.7008547,3.78803419 C14.5367521,3.52820513 14.1948718,3.44615385 13.9350427,3.61025641 C13.6752137,3.77435897 13.5931624,4.11623932 13.757265,4.37606838 C15.4666667,7.08376068 15.0700855,10.557265 12.8,12.8273504 C10.1470085,15.4803419 5.81196581,15.4803419 3.15897436,12.8273504 C0.505982906,10.174359 0.505982906,5.83931624 3.15897436,3.18632479 C5.42905983,0.92991453 8.88888889,0.533333333 11.5965812,2.21538462 C11.8564103,2.37948718 12.1982906,2.2974359 12.3623932,2.03760684 C12.5264957,1.77777778 12.4444444,1.43589744 12.1846154,1.27179487 Z"></path>
                                </g>
                            </g>
                        </g>
                    </g>
                </g>
            </g>
        </g>
    </g>
</svg>