<?xml version="1.0" encoding="UTF-8"?>
<svg width="24px" height="249px" viewBox="0 0 24 249" version="1.1" xmlns="http://www.w3.org/2000/svg" xmlns:xlink="http://www.w3.org/1999/xlink">
    <!-- Generator: Sketch 59 (86127) - https://sketch.com -->
    <title>h-icons</title>
    <desc>Created with Sketch.</desc>
    <defs>
        <rect id="path-1" x="0" y="0" width="30.075188" height="30.075188"></rect>
    </defs>
    <g id="cpa---128" stroke="none" stroke-width="1" fill="none" fill-rule="evenodd">
        <g id="cpa-128" transform="translate(-1245.000000, -215.000000)">
            <g id="Group-33" transform="translate(0.000000, -2.000000)">
                <g id="product" transform="translate(736.000000, 86.000000)">
                    <g id="h-icons" transform="translate(506.000000, 129.000000)">
                        <g id="Calque_2" transform="translate(3.759398, 53.258145)" stroke="#000000" stroke-linecap="round" stroke-linejoin="round" stroke-width="1.25313283">
                            <g id="Group">
                                <polyline id="XMLID_1146_" points="4.01002506 9.46115288 6.64160401 9.46115288 8.27067669 6.3283208 9.83709273 12.7192982 11.4035088 9.46115288 18.5463659 9.46115288"></polyline>
                                <path d="M12.3433584,3.38345865 L11.2781955,2.31829574 C8.83458647,-0.125313283 4.88721805,-0.125313283 2.44360902,2.31829574 C0,4.76190476 0,8.70927318 2.44360902,11.1528822 L11.2781955,19.9874687 L20.112782,11.1528822 C20.112782,11.1528822 20.112782,11.1528822 20.112782,11.1528822 C22.556391,8.70927318 22.556391,4.76190476 20.112782,2.31829574 C18.1704261,0.438596491 15.3508772,-5.55111512e-17 13.0325815,1.12781955" id="XMLID_1145_"></path>
                            </g>
                        </g>
                        <g id="icon-blood-pressure">
                            <mask id="mask-2" fill="white">
                                <use xlink:href="#path-1"></use>
                            </mask>
                            <g id="Rectangle"></g>
                            <g id="Plan_de_travail_1" mask="url(#mask-2)" stroke-linecap="round" stroke-linejoin="round">
                                <g transform="translate(4.385965, 1.879699)" id="Groupe_615">
                                    <g transform="translate(0.274436, 0.474937)">
                                        <g id="Groupe_22" transform="translate(0.596491, 0.575188)" stroke="#000000" stroke-width="1.25313283">
                                            <polyline id="Tracé_19" points="0 11.8865915 2.43107769 11.8865915 4.51441103 7.72243108 6.59774436 16.1140351 8.68107769 11.8865915 19.1873434 11.8865915"></polyline>
                                            <path d="M15.6716792,9.68546366 C13.9716772,6.42741138 12.0855156,3.26993179 10.0225564,0.228696742 C9.9267011,0.0856658749 9.76585201,-0.000167440261 9.59367168,-0.000167440261 C9.42149135,-0.000167440261 9.26064226,0.0856658749 9.16478697,0.228696742 C8.4981203,1.21804511 7.14411028,3.27130326 5.7481203,5.63471178" id="Tracé_20"></path>
                                            <path d="M1.65789474,14.1860902 C1.47804741,14.7758381 1.37733373,15.3868626 1.35839599,16.0031328 C1.39782404,20.5233233 5.07330928,24.1668883 9.59367168,24.1668883 C14.1140341,24.1668883 17.7895193,20.5233233 17.8289474,16.0031328 C17.8093296,15.3810033 17.7069252,14.7642592 17.5244361,14.1691729" id="Tracé_21"></path>
                                            <g id="Groupe_21" transform="translate(11.199248, 16.981830)">
                                                <path d="M0,5.0093985 C2.13979742,4.4346379 3.81120432,2.76323101 4.38596491,0.623433584" id="Tracé_22"></path>
                                                <path d="M4.38596491,0.623433584 C3.81120432,2.76323101 2.13979742,4.4346379 2.27373675e-13,5.0093985" id="Tracé_23"></path>
                                            </g>
                                        </g>
                                    </g>
                                </g>
                            </g>
                        </g>
                        <g id="Group" transform="translate(3.132832, 96.491228)" stroke="#000000" stroke-linecap="round" stroke-linejoin="round" stroke-width="1.25313283">
                            <circle id="Oval" cx="2.13032581" cy="1.56641604" r="1.56641604"></circle>
                            <circle id="Oval" cx="11.9047619" cy="1.56641604" r="1.56641604"></circle>
                            <circle id="Oval" cx="20.7393484" cy="20.0501253" r="2.50626566"></circle>
                            <path d="M11.9047619,6.39097744 C11.9047619,9.08521303 9.71177945,11.2781955 7.01754386,11.2781955 C4.32330827,11.2781955 2.13032581,9.08521303 2.13032581,6.39097744" id="Path"></path>
                            <line x1="2.13032581" y1="6.39097744" x2="2.13032581" y2="3.13283208" id="Path"></line>
                            <line x1="11.9047619" y1="6.39097744" x2="11.9047619" y2="3.13283208" id="Path"></line>
                            <path d="M13.8471178,19.1729323 C13.8471178,21.0526316 12.3433584,22.6190476 10.4010025,22.6190476 C8.45864662,22.6190476 6.95488722,21.1152882 6.95488722,19.1729323" id="Path"></path>
                            <path d="M13.8471178,14.7243108 C13.8471178,12.8446115 15.3508772,11.2781955 17.2932331,11.2781955 C19.235589,11.2781955 20.7393484,12.7819549 20.7393484,14.7243108" id="Path"></path>
                            <line x1="7.01754386" y1="11.2781955" x2="7.01754386" y2="19.1729323" id="Path"></line>
                            <line x1="20.7393484" y1="14.5363409" x2="20.7393484" y2="17.4185464" id="Path"></line>
                            <line x1="13.8471178" y1="14.9122807" x2="13.8471178" y2="19.1729323" id="Path"></line>
                        </g>
                        <g id="Calque_2" transform="translate(4.385965, 142.857143)" stroke="#001135" stroke-linecap="round" stroke-linejoin="round">
                            <g id="XMLID_1352_">
                                <g id="XMLID_1353_">
                                    <path d="M0,4.88721805 C2.69423559,2.06766917 6.51629073,0.37593985 10.7142857,0.37593985 C14.8496241,0.37593985 18.6090226,2.06766917 21.3032581,4.8245614" id="XMLID_1357_" stroke-width="1.25313283"></path>
                                    <path d="M3.7593985,8.33333333 C5.51378446,6.51629073 7.95739348,5.38847118 10.7142857,5.38847118 C13.4085213,5.38847118 15.7894737,6.45363409 17.5438596,8.27067669" id="XMLID_1356_" stroke-width="1.25313283"></path>
                                    <path d="M7.51879699,11.7794486 C8.33333333,10.9022556 9.46115288,10.4010025 10.7142857,10.4010025 C11.9047619,10.4010025 13.0325815,10.9022556 13.8471178,11.716792" id="XMLID_1355_" stroke-width="1.25313283"></path>
                                    <circle id="XMLID_1354_" stroke-width="1.06516291" cx="10.6516291" cy="15.7894737" r="1.37844612"></circle>
                                </g>
                            </g>
                        </g>
                        <g id="Calque_2" transform="translate(9.398496, 183.583960)" stroke="#000000" stroke-linecap="round" stroke-linejoin="round" stroke-width="1.25313283">
                            <g id="XMLID_1849_">
                                <polyline id="XMLID_1890_" points="5.63909774 7.51879699 5.63909774 0 10.9649123 5.32581454 0.313283208 15.9774436"></polyline>
                                <polyline id="XMLID_1850_" points="0.313283208 5.32581454 10.9649123 15.9774436 5.63909774 21.3032581 5.63909774 13.7844612"></polyline>
                            </g>
                        </g>
                        <g id="Calque_2" transform="translate(8.145363, 228.070175)">
                            <g id="XMLID_57_">
                                <path d="M4.63659148,2.2556391 L2.38095238,2.2556391 C1.12781955,2.2556391 0.125313283,3.25814536 0.125313283,4.5112782 L0.125313283,19.1102757 C0.125313283,20.3634085 1.12781955,21.3659148 2.38095238,21.3659148 L11.3408521,21.3659148 C12.593985,21.3659148 13.5964912,20.3634085 13.5964912,19.1102757 L13.5964912,4.5112782 C13.5964912,3.25814536 12.593985,2.2556391 11.3408521,2.2556391 L9.08521303,2.2556391 L9.08521303,1.12781955 C9.08521303,0.501253133 8.5839599,8.8817842e-16 7.95739348,8.8817842e-16 L5.70175439,8.8817842e-16 C5.07518797,8.8817842e-16 4.57393484,0.501253133 4.57393484,1.12781955 L4.57393484,2.2556391 L4.63659148,2.2556391 Z" id="XMLID_58_" stroke="#000000" stroke-width="1.25313283" stroke-linecap="round" stroke-linejoin="round"></path>
                                <path d="M10.0877193,19.4235589 L3.63408521,19.4235589 C2.75689223,19.4235589 2.06766917,18.7343358 2.06766917,17.8571429 L2.06766917,5.76441103 C2.06766917,4.88721805 2.75689223,4.19799499 3.63408521,4.19799499 L10.1503759,4.19799499 C11.0275689,4.19799499 11.716792,4.88721805 11.716792,5.76441103 L11.716792,17.9197995 C11.6541353,18.7343358 10.9649123,19.4235589 10.0877193,19.4235589 Z" id="Path" fill="#000000" fill-rule="nonzero"></path>
                            </g>
                        </g>
                    </g>
                </g>
            </g>
        </g>
    </g>
</svg>