<?xml version="1.0" encoding="UTF-8"?>
<svg width="106px" height="106px" viewBox="0 0 106 106" version="1.1" xmlns="http://www.w3.org/2000/svg" xmlns:xlink="http://www.w3.org/1999/xlink">
    <!-- Generator: Sketch 59 (86127) - https://sketch.com -->
    <title>step-1</title>
    <desc>Created with Sketch.</desc>
    <g id="cpa---128" stroke="none" stroke-width="1" fill="none" fill-rule="evenodd">
        <g id="cpa-128" transform="translate(-200.000000, -10251.000000)">
            <g id="art11" transform="translate(0.000000, 10050.000000)">
                <g id="Group-28" transform="translate(160.000000, 160.000000)">
                    <g id="Group-27" transform="translate(40.000000, 42.000000)">
                        <g id="step-1">
                            <g id="Groupe_27" transform="translate(0.797000, 0.000000)">
                                <rect id="Rectangle_353" stroke="#ADB0B7" stroke-width="1.3" x="0" y="0" width="103.7" height="103.7" rx="23"></rect>
                                <g id="flaticon1572532532-svg" transform="translate(32.000000, 25.000000)" fill="#000000" fill-rule="nonzero">
                                    <path d="M38.2073734,53 L0.79261329,53 C0.575647273,53 0.368183418,52.9113096 0.219316224,52.7545178 C0.0704490301,52.5977259 -0.00873564752,52.3870863 0.000766513793,52.1701117 L1.78242176,14.753868 C1.80300978,14.3310051 2.14983866,14 2.57426854,14 L36.4257182,14 C36.8485644,14 37.196977,14.3310051 37.217565,14.753868 L38.9992202,52.1701117 C39.0087224,52.3870863 38.9311214,52.5977259 38.7806705,52.7545178 C38.6302196,52.9113096 38.4227558,53 38.2073734,53 Z M1.62246871,51.4162437 L37.3759343,51.4162437 L35.6702964,15.5837563 L3.32810667,15.5837563 L1.62246871,51.4162437 Z" id="Shape"></path>
                                    <path d="M27.195597,18 C26.7515665,18 26.3911939,17.6455385 26.3911939,17.2087912 L26.3911939,9.34417582 C26.3911939,5.06531868 22.8518205,1.58241758 18.5,1.58241758 C14.1481795,1.58241758 10.6088061,5.06531868 10.6088061,9.34417582 L10.6088061,17.2087912 C10.6088061,17.6455385 10.2484335,18 9.80440305,18 C9.36037257,18 9,17.6455385 9,17.2087912 L9,9.34417582 C9,4.19182418 13.2617273,0 18.5,0 C23.7382727,0 28,4.19182418 28,9.34417582 L28,17.2087912 C28,17.6455385 27.6412362,18 27.195597,18 Z" id="Path"></path>
                                </g>
                            </g>
                        </g>
                    </g>
                </g>
            </g>
        </g>
    </g>
</svg>