<?xml version="1.0" encoding="UTF-8"?>
<svg width="106px" height="105px" viewBox="0 0 106 105" version="1.1" xmlns="http://www.w3.org/2000/svg" xmlns:xlink="http://www.w3.org/1999/xlink">
    <!-- Generator: Sketch 59 (86127) - https://sketch.com -->
    <title>step-2</title>
    <desc>Created with Sketch.</desc>
    <defs>
        <rect id="path-1" x="0.853" y="0.65" width="103.7" height="103.7" rx="23"></rect>
    </defs>
    <g id="cpa---128" stroke="none" stroke-width="1" fill="none" fill-rule="evenodd">
        <g id="cpa-128" transform="translate(-484.000000, -10251.000000)">
            <g id="art11" transform="translate(0.000000, 10050.000000)">
                <g id="Group-28" transform="translate(160.000000, 160.000000)">
                    <g id="Group-27-Copy" transform="translate(323.333333, 41.000000)">
                        <g id="step-2">
                            <g id="Groupe_27" transform="translate(0.797000, 0.000000)">
                                <mask id="mask-2" fill="white">
                                    <use xlink:href="#path-1"></use>
                                </mask>
                                <use id="Rectangle_353" stroke="#ADB0B7" stroke-width="1.3" xlink:href="#path-1"></use>
                                <g id="flaticon1572532384-svg" mask="url(#mask-2)">
                                    <g transform="translate(27.869667, 28.000000)">
                                        <path d="M40.1832665,50 C38.1030645,50 35.5906782,49.4786385 32.8294076,48.4375975 C26.7704198,46.1520161 20.1817121,41.638035 14.2723912,35.7281507 C8.36307035,29.8182663 3.84951965,23.2272485 1.56415623,17.1660012 C-0.516045784,11.6580697 -0.521090736,7.13736134 1.54733973,5.06873364 C1.84667357,4.76937126 2.15105236,4.44982714 2.4638394,4.12187397 C4.35233323,2.13733683 6.5367976,-0.117971908 9.31320304,0.00480030532 C11.263918,0.0855272399 13.1524118,1.29643126 15.0896735,3.70142119 C20.8005595,10.8070732 18.2259522,13.3398808 15.246067,16.2763231 L14.7180287,16.7976845 C14.2303499,17.2854097 13.3071237,19.5424003 21.881861,28.1162735 C24.6834912,30.916489 27.068072,32.964935 28.9733823,34.2044298 C30.1757627,34.9847902 32.3215491,36.162058 33.2010524,35.2824707 L33.7307724,34.7476548 C36.6635714,31.7708491 39.1961375,29.2044053 46.2994304,34.9141541 C48.7058726,36.8482369 49.9149796,38.7369108 49.9956988,40.6894935 C50.1117327,43.5182999 47.8583206,45.6575636 45.8706094,47.5445557 C45.5443692,47.8556908 45.2248555,48.156735 44.928885,48.4527338 C43.8963514,49.483684 42.2550602,50 40.1832665,50 Z M9.1130866,1.6798842 C7.10519557,1.6798842 5.28901272,3.59042165 3.68303622,5.27896003 C3.35847762,5.61868588 3.04400892,5.95000268 2.73626683,6.25777412 C1.19587471,7.79663131 1.35394989,11.8464325 3.13649972,16.5740036 C5.33946224,22.4149337 9.71679923,28.7957252 15.4613183,34.540792 C21.2058374,40.2858589 27.5843388,44.6619314 33.4230303,46.865104 C38.1501507,48.6495057 42.1995658,48.8042323 43.7399579,47.2620115 C44.0477,46.9559218 44.3756219,46.643105 44.711952,46.3235609 C46.440689,44.6804314 48.3998122,42.8203483 48.3157297,40.7550842 C48.2568719,39.3373174 47.2243383,37.8119147 45.2450353,36.2226032 C39.3256246,31.4664413 37.6725619,33.1482524 34.9281078,35.9266044 L34.3899795,36.4698294 C33.0833369,37.7833239 30.9526853,37.4957342 28.0568827,35.6121057 C26.0557182,34.3103839 23.576965,32.1862564 20.6929339,29.3036321 L20.6929339,29.3036321 C13.5778694,22.1878892 11.3009143,17.835362 13.5291016,15.6052804 L14.0655482,15.0738281 C16.8537252,12.3291123 18.5353759,10.6725284 13.7779859,4.75255315 C12.1871442,2.77642506 10.661887,1.74379302 9.24425536,1.68324782 C9.20053244,1.68156601 9.15512787,1.6798842 9.1130866,1.6798842 Z" id="Shape" fill="#000000" fill-rule="nonzero"></path>
                                        <g id="Group" stroke-width="1" fill="none" fill-rule="evenodd" transform="translate(25.000000, 0.000000)">
                                            <path d="M15.1166667,20.4833333 C15.0116667,20.4833333 14.9066667,20.4633333 14.8033333,20.4216667 C14.3766667,20.2483333 14.17,19.7633333 14.345,19.3383333 C15.405,16.725 14.7983333,13.7466667 12.805,11.7516667 C10.7566667,9.70333333 7.60833333,9.135 4.96666667,10.3216667 C4.55166667,10.51 4.05333333,10.3266667 3.865,9.90666667 C3.675,9.48666667 3.86,8.99333333 4.28,8.805 C7.54833333,7.325 11.4466667,8.03666667 13.9833333,10.575 C16.4516667,13.0433333 17.2,16.7283333 15.8883333,19.965 C15.7583333,20.285 15.445,20.4833333 15.1166667,20.4833333 Z" id="Path" fill="#000000" fill-rule="nonzero"></path>
                                            <path d="M22.5566667,23.5033333 C22.4516667,23.5033333 22.3466667,23.4833333 22.2433333,23.4416667 C21.815,23.2683333 21.61,22.7833333 21.785,22.3583333 C24.06,16.7466667 22.765,10.355 18.4833333,6.07333333 C14.0866667,1.67666667 7.325,0.443333333 1.65833333,3.005 C1.23833333,3.18833333 0.745,3.00833333 0.555,2.58833333 C0.366666667,2.16666667 0.551666667,1.67333333 0.971666667,1.48333333 C7.26666667,-1.36 14.7766667,0.00833333333 19.6616667,4.89333333 C24.4183333,9.65 25.8583333,16.75 23.3283333,22.9833333 C23.1983333,23.3066667 22.885,23.5033333 22.5566667,23.5033333 Z" id="Path" fill="#000000" fill-rule="nonzero"></path>
                                        </g>
                                    </g>
                                </g>
                            </g>
                        </g>
                    </g>
                </g>
            </g>
        </g>
    </g>
</svg>